<svg xmlns="http://www.w3.org/2000/svg" xmlns:xlink="http://www.w3.org/1999/xlink" aria-hidden="true" role="img" class="iconify iconify--logos" width="31.88" height="32" preserveAspectRatio="xMidYMid meet" viewBox="0 0 256 257"><path fill="#00D8FF" d="M210.483 73.824a128 128 0 0 0-205.871 133.741h89.626a32 32 0 0 1 29.483-21.418h86.762a31.997 31.997 0 0 0 31.44-25.024a128.14 128.14 0 0 0-31.44-141.046Z"></path><path fill="#00D8FF" d="M185.664 176.624a31.997 31.997 0 0 0-29.483 21.418H45.387a128 128 0 0 0 17.544 67.024a32.046 32.046 0 0 0 30.906 20.592h97.684a95.997 95.997 0 0 0 60.466-20.538a31.997 31.997 0 0 0 11.793-27.67a96.151 96.151 0 0 0-40.736-80.815Z"></path><path fill="#61DAFB" d="M156.181 198.042a31.997 31.997 0 0 1-29.483-21.418V48.546a31.998 31.998 0 0 1 6.708-19.293a95.997 95.997 0 0 0-67.174 20.789a31.997 31.997 0 0 1-43.292-4.48a128.077 128.077 0 0 1 195.136 154.333a95.933 95.933 0 0 0-52.705-69.649Z"></path></svg>